<?xml version="1.0" encoding="UTF-8" standalone="no"?>
<!-- Created with Inkscape (http://www.inkscape.org/) -->

<svg
   xmlns:dc="http://purl.org/dc/elements/1.1/"
   xmlns:cc="http://creativecommons.org/ns#"
   xmlns:rdf="http://www.w3.org/1999/02/22-rdf-syntax-ns#"
   xmlns:svg="http://www.w3.org/2000/svg"
   xmlns="http://www.w3.org/2000/svg"
   xmlns:sodipodi="http://sodipodi.sourceforge.net/DTD/sodipodi-0.dtd"
   xmlns:inkscape="http://www.inkscape.org/namespaces/inkscape"
   width="744.09448819"
   height="1052.3622047"
   id="svg2"
   version="1.1"
   inkscape:version="0.48.4 r9939"
   sodipodi:docname="Spicer Raw.svg">
  <defs
     id="defs4" />
  <sodipodi:namedview
     id="base"
     pagecolor="#ffffff"
     bordercolor="#666666"
     borderopacity="1.0"
     inkscape:pageopacity="0.0"
     inkscape:pageshadow="2"
     inkscape:zoom="5.6"
     inkscape:cx="404.24135"
     inkscape:cy="642.30535"
     inkscape:document-units="px"
     inkscape:current-layer="layer1"
     showgrid="true"
     inkscape:snap-grids="true"
     inkscape:object-paths="false"
     inkscape:window-width="1920"
     inkscape:window-height="1027"
     inkscape:window-x="-8"
     inkscape:window-y="-8"
     inkscape:window-maximized="1">
    <inkscape:grid
       type="xygrid"
       id="grid2985" />
  </sodipodi:namedview>
  <metadata
     id="metadata7">
    <rdf:RDF>
      <cc:Work
         rdf:about="">
        <dc:format>image/svg+xml</dc:format>
        <dc:type
           rdf:resource="http://purl.org/dc/dcmitype/StillImage" />
        <dc:title />
      </cc:Work>
    </rdf:RDF>
  </metadata>
  <g
     inkscape:label="Layer 1"
     inkscape:groupmode="layer"
     id="layer1">
    <rect
       style="fill:#ff2a2a;fill-opacity:1;stroke:none"
       id="rect2987"
       width="140"
       height="140"
       x="150"
       y="312.36218" />
    <path
       style="fill:#ff8c00;fill-opacity:1;stroke:none"
       d="m 150.26317,382.27231 0,-69.82143 69.82143,0 69.82142,0 0,69.82143 0,69.82142 -69.82142,0 -69.82143,0 0,-69.82142 z"
       id="path2989"
       inkscape:connector-curvature="0" />
    <path
       style="fill:none;stroke:#ffffff;stroke-width:1.70000005;stroke-linecap:butt;stroke-linejoin:miter;stroke-miterlimit:4;stroke-opacity:1;stroke-dasharray:none"
       d="m 165,427.36218 55,-55 55,55 z"
       id="path3759"
       inkscape:connector-curvature="0"
       sodipodi:nodetypes="cccc" />
    <path
       style="fill:#ffffff;fill-opacity:1;stroke:#ffffff;stroke-width:1px;stroke-linecap:butt;stroke-linejoin:miter;stroke-opacity:1"
       d="m 220,372.36218 8.21429,17.67857 -20.21429,5.32143 18,0 7.57143,16.46428 -44.57143,6.53572 40,0 8.14285,9.00003 -72.14285,0 z"
       id="path3761"
       inkscape:connector-curvature="0"
       sodipodi:nodetypes="cccccccccc" />
    <path
       sodipodi:type="arc"
       style="fill:#ffffff;fill-opacity:1;stroke:#ffffff;stroke-width:1.70000005;stroke-linecap:round;stroke-linejoin:round;stroke-miterlimit:4;stroke-opacity:1;stroke-dasharray:none"
       id="path3765"
       sodipodi:cx="215.22563"
       sodipodi:cy="367.28934"
       sodipodi:rx="1.7046324"
       sodipodi:ry="1.7046324"
       d="m 215.2151,368.99394 a 1.7046324,1.7046324 0 1 1 0.0313,-1e-4"
       sodipodi:start="1.5769719"
       sodipodi:end="7.8417864"
       sodipodi:open="true"
       transform="matrix(0.72814888,0,0,0.72814888,52.704988,103.51693)" />
    <path
       sodipodi:type="arc"
       style="fill:#ffffff;fill-opacity:1;stroke:#ffffff;stroke-width:1.70000005;stroke-linecap:round;stroke-linejoin:round;stroke-miterlimit:4;stroke-opacity:1;stroke-dasharray:none"
       id="path3765-1"
       sodipodi:cx="215.22563"
       sodipodi:cy="367.28934"
       sodipodi:rx="1.7046324"
       sodipodi:ry="1.7046324"
       d="m 215.2151,368.99394 a 1.7046324,1.7046324 0 1 1 0.0313,-1e-4"
       sodipodi:start="1.5769719"
       sodipodi:end="7.8417864"
       sodipodi:open="true"
       transform="matrix(0.51844586,0,0,0.51844586,116.17592,175.57454)" />
    <path
       sodipodi:type="arc"
       style="fill:#ffffff;fill-opacity:1;stroke:#ffffff;stroke-width:1.70000005;stroke-linecap:round;stroke-linejoin:round;stroke-miterlimit:4;stroke-opacity:1;stroke-dasharray:none"
       id="path3765-7"
       sodipodi:cx="215.22563"
       sodipodi:cy="367.28934"
       sodipodi:rx="1.7046324"
       sodipodi:ry="1.7046324"
       d="m 215.2151,368.99394 a 1.7046324,1.7046324 0 1 1 0.0313,-1e-4"
       sodipodi:start="1.5769719"
       sodipodi:end="7.8417864"
       sodipodi:open="true"
       transform="matrix(0.81552514,0,0,0.81552514,56.276595,58.172466)" />
    <path
       sodipodi:type="arc"
       style="fill:#ffffff;fill-opacity:1;stroke:#ffffff;stroke-width:1.70000005;stroke-linecap:round;stroke-linejoin:round;stroke-miterlimit:4;stroke-opacity:1;stroke-dasharray:none"
       id="path3765-4"
       sodipodi:cx="215.22563"
       sodipodi:cy="367.28934"
       sodipodi:rx="1.7046324"
       sodipodi:ry="1.7046324"
       d="m 215.2151,368.99394 a 1.7046324,1.7046324 0 1 1 0.0313,-1e-4"
       sodipodi:start="1.5769719"
       sodipodi:end="7.8417864"
       sodipodi:open="true"
       transform="matrix(0.4135923,0,0,0.4135923,135.47759,200.08187)" />
    <path
       sodipodi:type="arc"
       style="fill:#ffffff;fill-opacity:1;stroke:#ffffff;stroke-width:1.70000005;stroke-linecap:round;stroke-linejoin:round;stroke-miterlimit:4;stroke-opacity:1;stroke-dasharray:none"
       id="path3765-0"
       sodipodi:cx="215.22563"
       sodipodi:cy="367.28934"
       sodipodi:rx="1.7046324"
       sodipodi:ry="1.7046324"
       d="m 215.2151,368.99394 a 1.7046324,1.7046324 0 1 1 0.0313,-1e-4"
       sodipodi:start="1.5769719"
       sodipodi:end="7.8417864"
       sodipodi:open="true"
       transform="matrix(0.72814888,0,0,0.72814888,73.434136,102.24375)" />
    <path
       sodipodi:type="arc"
       style="fill:#ffffff;fill-opacity:1;stroke:#ffffff;stroke-width:1.70000005;stroke-linecap:round;stroke-linejoin:round;stroke-miterlimit:4;stroke-opacity:1;stroke-dasharray:none"
       id="path3765-9"
       sodipodi:cx="215.22563"
       sodipodi:cy="367.28934"
       sodipodi:rx="1.7046324"
       sodipodi:ry="1.7046324"
       d="m 215.2151,368.99394 a 1.7046324,1.7046324 0 1 1 0.0313,-1e-4"
       sodipodi:start="1.5769719"
       sodipodi:end="7.8417864"
       sodipodi:open="true"
       transform="matrix(0.39611909,0,0,0.39611909,119.35054,234.09101)" />
    <path
       sodipodi:type="arc"
       style="fill:#ffffff;fill-opacity:1;stroke:#ffffff;stroke-width:1.70000005;stroke-linecap:round;stroke-linejoin:round;stroke-miterlimit:4;stroke-opacity:1;stroke-dasharray:none"
       id="path3765-48"
       sodipodi:cx="215.22563"
       sodipodi:cy="367.28934"
       sodipodi:rx="1.7046324"
       sodipodi:ry="1.7046324"
       d="m 215.2151,368.99394 a 1.7046324,1.7046324 0 1 1 0.0313,-1e-4"
       sodipodi:start="1.5769719"
       sodipodi:end="7.8417864"
       sodipodi:open="true"
       transform="matrix(0.72814888,0,0,0.72814888,64.228284,90.984789)" />
    <path
       sodipodi:type="arc"
       style="fill:#ffffff;fill-opacity:1;stroke:#ffffff;stroke-width:1.70000005;stroke-linecap:round;stroke-linejoin:round;stroke-miterlimit:4;stroke-opacity:1;stroke-dasharray:none"
       id="path3765-8"
       sodipodi:cx="215.22563"
       sodipodi:cy="367.28934"
       sodipodi:rx="1.7046324"
       sodipodi:ry="1.7046324"
       d="m 215.2151,368.99394 a 1.7046324,1.7046324 0 1 1 0.0313,-1e-4"
       sodipodi:start="1.5769719"
       sodipodi:end="7.8417864"
       sodipodi:open="true"
       transform="matrix(0.72814888,0,0,0.72814888,79.530045,65.423954)" />
    <path
       sodipodi:type="arc"
       style="fill:#ffffff;fill-opacity:1;stroke:#ffffff;stroke-width:1.70000005;stroke-linecap:round;stroke-linejoin:round;stroke-miterlimit:4;stroke-opacity:1;stroke-dasharray:none"
       id="path3765-2"
       sodipodi:cx="215.22563"
       sodipodi:cy="367.28934"
       sodipodi:rx="1.7046324"
       sodipodi:ry="1.7046324"
       d="m 215.2151,368.99394 a 1.7046324,1.7046324 0 1 1 0.0313,-1e-4"
       sodipodi:start="1.5769719"
       sodipodi:end="7.8417864"
       sodipodi:open="true"
       transform="matrix(0.57087161,0,0,0.57087161,100.05277,155.43717)" />
    <path
       sodipodi:type="arc"
       style="fill:#ffffff;fill-opacity:1;stroke:#ffffff;stroke-width:1.70000005;stroke-linecap:round;stroke-linejoin:round;stroke-miterlimit:4;stroke-opacity:1;stroke-dasharray:none"
       id="path3765-45"
       sodipodi:cx="215.22563"
       sodipodi:cy="367.28934"
       sodipodi:rx="1.7046324"
       sodipodi:ry="1.7046324"
       d="m 215.2151,368.99394 a 1.7046324,1.7046324 0 1 1 0.0313,-1e-4"
       sodipodi:start="1.5769719"
       sodipodi:end="7.8417864"
       sodipodi:open="true"
       transform="matrix(0.62329669,0,0,0.62329669,80.732521,132.89073)" />
    <path
       sodipodi:type="arc"
       style="fill:#ffffff;fill-opacity:1;stroke:#ffffff;stroke-width:1.70000005;stroke-linecap:round;stroke-linejoin:round;stroke-miterlimit:4;stroke-opacity:1;stroke-dasharray:none"
       id="path3765-5"
       sodipodi:cx="215.22563"
       sodipodi:cy="367.28934"
       sodipodi:rx="1.7046324"
       sodipodi:ry="1.7046324"
       d="m 215.2151,368.99394 a 1.7046324,1.7046324 0 1 1 0.0313,-1e-4"
       sodipodi:start="1.5769719"
       sodipodi:end="7.8417864"
       sodipodi:open="true"
       transform="matrix(0.4660201,0,0,0.4660201,136.41674,170.72022)" />
    <path
       style="fill:#ffffff;fill-opacity:1;stroke:none"
       d="m 251.52798,431.11837 -59.85153,0 24.11738,4.04061 -29.67322,6.81853 44.69924,-7.19734 -14.89974,-2.02031 47.85597,-0.88388 z"
       id="path3850"
       inkscape:connector-curvature="0"
       sodipodi:nodetypes="cccccccc" />
    <rect
       style="fill:#ff2a2a;fill-opacity:1;stroke:none"
       id="rect2987-1"
       width="140"
       height="140"
       x="318.40366"
       y="330.30872" />
    <path
       style="fill:#ff8c00;fill-opacity:1;stroke:none"
       d="m 318.66682,400.21884 0,-69.82142 69.82143,0 69.82142,0 0,69.82142 0,69.82143 -69.82142,0 -69.82143,0 0,-69.82143 z"
       id="path2989-7"
       inkscape:connector-curvature="0" />
    <path
       style="fill:none;stroke:#ffffff;stroke-width:1.70000005;stroke-linecap:butt;stroke-linejoin:miter;stroke-miterlimit:4;stroke-opacity:1;stroke-dasharray:none"
       d="m 333.40365,445.30872 55,-55.00001 55,55.00001 z"
       id="path3759-4"
       inkscape:connector-curvature="0"
       sodipodi:nodetypes="cccc" />
    <path
       style="fill:#ffffff;fill-opacity:1;stroke:#ffffff;stroke-width:1px;stroke-linecap:butt;stroke-linejoin:miter;stroke-opacity:1"
       d="M 388.40365,390.30871 C 380,398.36218 378,402.36218 378,409.36218 c 0,5 5.23871,11 10,11 6,0 10,6 9,12 -1,6 -8,11 -12,13 l -51.59635,-0.0534 z"
       id="path3761-0"
       inkscape:connector-curvature="0"
       sodipodi:nodetypes="csssccc" />
    <path
       sodipodi:type="arc"
       style="fill:#ffffff;fill-opacity:1;stroke:#ffffff;stroke-width:1.70000005;stroke-linecap:round;stroke-linejoin:round;stroke-miterlimit:4;stroke-opacity:1;stroke-dasharray:none"
       id="path3765-7-8"
       sodipodi:cx="215.22563"
       sodipodi:cy="367.28934"
       sodipodi:rx="1.7046324"
       sodipodi:ry="1.7046324"
       d="m 215.2151,368.99394 a 1.7046324,1.7046324 0 1 1 0.0313,-1e-4"
       sodipodi:start="1.5769719"
       sodipodi:end="7.8417864"
       sodipodi:open="true"
       transform="matrix(0.81552514,0,0,0.81552514,210.41184,80.03334)" />
    <path
       sodipodi:type="arc"
       style="fill:#ffffff;fill-opacity:1;stroke:#ffffff;stroke-width:1.70000005;stroke-linecap:round;stroke-linejoin:round;stroke-miterlimit:4;stroke-opacity:1;stroke-dasharray:none"
       id="path3765-0-4"
       sodipodi:cx="215.22563"
       sodipodi:cy="367.28934"
       sodipodi:rx="1.7046324"
       sodipodi:ry="1.7046324"
       d="m 215.2151,368.99394 a 1.7046324,1.7046324 0 1 1 0.0313,-1e-4"
       sodipodi:start="1.5769719"
       sodipodi:end="7.8417864"
       sodipodi:open="true"
       transform="matrix(0.72814888,0,0,0.72814888,242.09033,115.13952)" />
    <path
       sodipodi:type="arc"
       style="fill:#ffffff;fill-opacity:1;stroke:#ffffff;stroke-width:1.70000005;stroke-linecap:round;stroke-linejoin:round;stroke-miterlimit:4;stroke-opacity:1;stroke-dasharray:none"
       id="path3765-48-5"
       sodipodi:cx="215.22563"
       sodipodi:cy="367.28934"
       sodipodi:rx="1.7046324"
       sodipodi:ry="1.7046324"
       d="m 215.2151,368.99394 a 1.7046324,1.7046324 0 1 1 0.0313,-1e-4"
       sodipodi:start="1.5769719"
       sodipodi:end="7.8417864"
       sodipodi:open="true"
       transform="matrix(0.72814888,0,0,0.72814888,236.16748,103.24922)" />
  </g>
</svg>
